<?xml version="1.0" encoding="UTF-8" standalone="no"?>
<!-- Created with Inkscape (http://www.inkscape.org/) -->

<svg
   width="210mm"
   height="297mm"
   viewBox="0 0 210 297"
   version="1.1"
   id="svg5"
   xml:space="preserve"
   sodipodi:docname="icon.svg"
   inkscape:version="1.2.2 (732a01da63, 2022-12-09)"
   xmlns:inkscape="http://www.inkscape.org/namespaces/inkscape"
   xmlns:sodipodi="http://sodipodi.sourceforge.net/DTD/sodipodi-0.dtd"
   xmlns="http://www.w3.org/2000/svg"
   xmlns:svg="http://www.w3.org/2000/svg"><sodipodi:namedview
     id="namedview7"
     pagecolor="#ffffff"
     bordercolor="#000000"
     borderopacity="0.25"
     inkscape:showpageshadow="2"
     inkscape:pageopacity="0.0"
     inkscape:pagecheckerboard="0"
     inkscape:deskcolor="#d1d1d1"
     inkscape:document-units="mm"
     showgrid="false"
     showguides="true"
     inkscape:zoom="0.38039422"
     inkscape:cx="273.40058"
     inkscape:cy="439.01824"
     inkscape:window-width="1920"
     inkscape:window-height="1009"
     inkscape:window-x="1072"
     inkscape:window-y="352"
     inkscape:window-maximized="1"
     inkscape:current-layer="layer1" /><defs
     id="defs2" /><g
     inkscape:label="Layer 1"
     inkscape:groupmode="layer"
     id="layer1"><path
       id="path7508"
       style="color:#000000;fill:#00a0ff;stroke-linecap:round;stroke-linejoin:round;-inkscape-stroke:none"
       d="M 84.454277 126.27395 C 80.614416 126.64266 76.507986 127.14476 72.587817 127.83767 C 72.572547 127.83967 70.815253 128.1181 68.988037 129.13475 C 67.152872 130.15582 64.942625 132.28867 64.880794 135.50387 A 2.2652266 2.2652266 0 0 0 64.878727 135.54883 L 64.878727 146.06809 A 2.2650001 2.2650001 0 0 0 67.144739 148.3341 A 2.2650001 2.2650001 0 0 0 69.410234 146.06809 L 69.410234 135.59172 C 69.435344 134.28585 70.13581 133.68107 71.19152 133.09368 C 72.247231 132.5063 73.341777 132.30459 73.341777 132.30459 A 2.2652266 2.2652266 0 0 0 73.365031 132.30045 C 77.831299 131.5105 82.648559 130.96401 86.984355 130.59151 C 87.5499 130.54292 88.091645 130.50213 88.639034 130.45922 L 84.454277 126.27395 z " /><path
       style="fill:none;fill-opacity:1;stroke:#00a0ff;stroke-width:4.53001;stroke-linecap:round;stroke-linejoin:round;stroke-dasharray:none;stroke-opacity:1"
       d="m 67.144751,146.06834 c 0,0 1.2997,17.12793 18.692916,17.64959 0,0 4.78191,0.69555 7.129392,-1.56499 0,0 3.477747,-4.60802 7.998831,-4.69496"
       id="path7888"
       sodipodi:nodetypes="cccc" /><path
       id="path7900"
       style="color:#000000;fill:#00a0ff;stroke-linecap:round;stroke-linejoin:round;-inkscape-stroke:none"
       d="M 102.42217 144.24184 C 83.049008 147.76227 68.347766 141.70711 68.347766 141.70711 A 2.2650051 2.2650051 0 0 0 65.394458 142.94735 A 2.2650051 2.2650051 0 0 0 66.636759 145.90014 C 66.636759 145.90014 84.064605 152.93728 106.19765 148.01784 L 102.42217 144.24184 z " /><path
       id="path13813"
       style="color:#000000;fill:#00a0ff;stroke-linecap:round;stroke-linejoin:round;-inkscape-stroke:none"
       d="M 107.56759 126.76694 L 113.05305 132.25291 C 113.73955 132.158 114.4354 132.10936 115.13664 132.11132 C 119.09393 132.12242 122.88015 133.70482 125.66985 136.51156 A 3.3499999 3.3499999 0 0 0 130.40806 136.52552 A 3.3499999 3.3499999 0 0 0 130.42201 131.7873 C 126.38107 127.72166 120.88644 125.428 115.15421 125.41198 C 112.53978 125.40469 109.97272 125.87319 107.56759 126.76694 z " /><path
       id="path13816"
       style="color:#000000;fill:#00a0ff;stroke-linecap:round;stroke-linejoin:round;-inkscape-stroke:none"
       d="M 97.935107 117.13497 L 102.88571 122.08557 C 113.39195 117.00977 126.35016 118.86412 135.05067 127.61702 A 3.3499999 3.3499999 0 0 0 139.78733 127.63097 A 3.3499999 3.3499999 0 0 0 139.80284 122.89276 C 133.05382 116.1031 124.16808 112.681 115.26738 112.63654 C 109.28253 112.60661 103.29132 114.10694 97.935107 117.13497 z " /><path
       id="path13819"
       style="color:#000000;fill:#00a0ff;stroke-linecap:round;stroke-linejoin:round;-inkscape-stroke:none"
       d="m 115.04879,99.582038 c -9.48413,0.01 -18.634844,3.015872 -26.207702,8.458912 l 4.812626,4.81263 c 6.262616,-4.23471 13.699816,-6.56236 21.400766,-6.57014 10.84854,-0.011 21.18845,4.57739 28.45717,12.63075 a 3.3499999,3.3499999 0 0 0 4.73253,0.24184 3.3499999,3.3499999 0 0 0 0.24236,-4.73046 c -8.53831,-9.46 -20.69435,-14.856412 -33.43775,-14.843532 z" /><rect
       style="fill:none;stroke:#000000;stroke-width:0.369614;stroke-linecap:round;stroke-linejoin:round;stroke-opacity:1"
       id="rect234"
       width="99.630386"
       height="99.630386"
       x="55.743355"
       y="86.279671" /><path
       style="fill:none;fill-opacity:1;stroke:#00a0ff;stroke-width:7.93;stroke-linecap:round;stroke-linejoin:round;stroke-dasharray:none;stroke-opacity:1"
       d="m 74.867387,105.4037 61.382323,61.38232"
       id="path5611" /><path
       id="path13748"
       style="color:#000000;fill:#00a0ff;stroke-linecap:round;stroke-linejoin:round;-inkscape-stroke:none"
       d="M 119.30228 161.12195 C 118.29542 161.30248 117.20741 161.41775 116.02548 161.45319 A 2.2652316 2.2652316 0 0 0 115.76761 161.47645 C 115.76761 161.47645 114.80062 161.61295 113.57446 161.52347 C 112.42967 161.43991 111.24157 161.08944 110.65216 160.62275 C 110.06251 159.81796 106.51403 155.29896 101.00986 155.19311 A 2.2650051 2.2650051 0 0 0 98.700952 157.41416 A 2.2650051 2.2650051 0 0 0 100.92201 159.72255 C 103.92721 159.78035 107.15625 163.51767 107.15625 163.51767 A 2.2652316 2.2652316 0 0 0 107.39448 163.78535 C 109.20535 165.52915 111.49259 165.91524 113.24425 166.04309 C 114.92157 166.16552 116.17159 165.9792 116.28541 165.963 C 118.78141 165.87566 121.00417 165.45505 122.97492 164.79459 L 119.30228 161.12195 z " /></g></svg>
