<?xml version="1.0" encoding="UTF-8" standalone="no"?>
<!-- Created with Inkscape (http://www.inkscape.org/) -->

<svg
   width="210mm"
   height="297mm"
   viewBox="0 0 210 297"
   version="1.1"
   id="svg5"
   xml:space="preserve"
   sodipodi:docname="icon.svg"
   inkscape:version="1.2.2 (732a01da63, 2022-12-09)"
   xmlns:inkscape="http://www.inkscape.org/namespaces/inkscape"
   xmlns:sodipodi="http://sodipodi.sourceforge.net/DTD/sodipodi-0.dtd"
   xmlns:xlink="http://www.w3.org/1999/xlink"
   xmlns="http://www.w3.org/2000/svg"
   xmlns:svg="http://www.w3.org/2000/svg"><sodipodi:namedview
     id="namedview7"
     pagecolor="#ffffff"
     bordercolor="#000000"
     borderopacity="0.25"
     inkscape:showpageshadow="2"
     inkscape:pageopacity="0.0"
     inkscape:pagecheckerboard="0"
     inkscape:deskcolor="#d1d1d1"
     inkscape:document-units="mm"
     showgrid="false"
     showguides="true"
     inkscape:zoom="1"
     inkscape:cx="276"
     inkscape:cy="988"
     inkscape:window-width="1920"
     inkscape:window-height="1009"
     inkscape:window-x="1072"
     inkscape:window-y="352"
     inkscape:window-maximized="1"
     inkscape:current-layer="layer1" /><defs
     id="defs2"><linearGradient
       inkscape:collect="always"
       id="linearGradient21041"><stop
         style="stop-color:#0999ff;stop-opacity:1;"
         offset="0"
         id="stop21037" /><stop
         style="stop-color:#0077c8;stop-opacity:1;"
         offset="1"
         id="stop21039" /></linearGradient><linearGradient
       inkscape:collect="always"
       id="linearGradient20483"><stop
         style="stop-color:#1ca2fe;stop-opacity:1;"
         offset="0"
         id="stop20479" /><stop
         style="stop-color:#16a0fe;stop-opacity:1;"
         offset="1"
         id="stop20481" /></linearGradient><linearGradient
       inkscape:collect="always"
       id="linearGradient18890"><stop
         style="stop-color:#0e8ce3;stop-opacity:1;"
         offset="0"
         id="stop18886" /><stop
         style="stop-color:#0c8ae0;stop-opacity:1;"
         offset="1"
         id="stop18888" /></linearGradient><linearGradient
       inkscape:collect="always"
       id="linearGradient17151"><stop
         style="stop-color:#81cafe;stop-opacity:1;"
         offset="0"
         id="stop17147" /><stop
         style="stop-color:#25a5fe;stop-opacity:1;"
         offset="1"
         id="stop17149" /></linearGradient><linearGradient
       inkscape:collect="always"
       id="linearGradient12520"><stop
         style="stop-color:#898989;stop-opacity:1;"
         offset="0"
         id="stop12516" /><stop
         style="stop-color:#6f6f6f;stop-opacity:1;"
         offset="1"
         id="stop12518" /></linearGradient><linearGradient
       inkscape:collect="always"
       id="linearGradient4295"><stop
         style="stop-color:#2aa7ff;stop-opacity:1;"
         offset="0"
         id="stop4291" /><stop
         style="stop-color:#0098fd;stop-opacity:1;"
         offset="1"
         id="stop4293" /></linearGradient><linearGradient
       inkscape:collect="always"
       id="linearGradient3461"><stop
         style="stop-color:#20a3ff;stop-opacity:1;"
         offset="0"
         id="stop3457" /><stop
         style="stop-color:#007acc;stop-opacity:1;"
         offset="1"
         id="stop3459" /></linearGradient><linearGradient
       inkscape:collect="always"
       id="linearGradient2351"><stop
         style="stop-color:#1ca4ff;stop-opacity:1;"
         offset="0"
         id="stop2347" /><stop
         style="stop-color:#007acc;stop-opacity:1;"
         offset="1"
         id="stop2349" /></linearGradient><linearGradient
       inkscape:collect="always"
       id="linearGradient1890"><stop
         style="stop-color:#008ff0;stop-opacity:1;"
         offset="0"
         id="stop1886" /><stop
         style="stop-color:#007acc;stop-opacity:1;"
         offset="1"
         id="stop1888" /></linearGradient><linearGradient
       inkscape:collect="always"
       id="linearGradient18231"><stop
         style="stop-color:#000000;stop-opacity:1;"
         offset="0"
         id="stop18227" /><stop
         style="stop-color:#000000;stop-opacity:0;"
         offset="1"
         id="stop18229" /></linearGradient><linearGradient
       inkscape:collect="always"
       id="linearGradient15205"><stop
         style="stop-color:#137dc2;stop-opacity:1;"
         offset="0.20494699"
         id="stop15201" /><stop
         style="stop-color:#bde2fb;stop-opacity:1;"
         offset="1"
         id="stop15203" /></linearGradient><linearGradient
       inkscape:collect="always"
       id="linearGradient6334"><stop
         style="stop-color:#bcbcbc;stop-opacity:1;"
         offset="0"
         id="stop6330" /><stop
         style="stop-color:#6b6b6b;stop-opacity:0;"
         offset="1"
         id="stop6332" /></linearGradient><linearGradient
       inkscape:collect="always"
       id="linearGradient4629"><stop
         style="stop-color:#dedede;stop-opacity:1;"
         offset="0"
         id="stop4625" /><stop
         style="stop-color:#dedede;stop-opacity:0;"
         offset="1"
         id="stop4627" /></linearGradient><linearGradient
       inkscape:collect="always"
       id="linearGradient3099"><stop
         style="stop-color:#000000;stop-opacity:1;"
         offset="0"
         id="stop3095" /><stop
         style="stop-color:#7e7e7e;stop-opacity:0;"
         offset="1"
         id="stop3097" /></linearGradient><radialGradient
       inkscape:collect="always"
       xlink:href="#linearGradient4629"
       id="radialGradient4631"
       cx="140.41895"
       cy="224.31933"
       fx="140.41895"
       fy="224.31933"
       r="4.694335"
       gradientTransform="matrix(1,0,0,0.83191229,0,37.705322)"
       gradientUnits="userSpaceOnUse" /><linearGradient
       inkscape:collect="always"
       xlink:href="#linearGradient15205"
       id="linearGradient15599"
       gradientUnits="userSpaceOnUse"
       x1="115.79492"
       y1="241.13281"
       x2="131.2207"
       y2="241.13281" /><filter
       inkscape:collect="always"
       style="color-interpolation-filters:sRGB"
       id="filter8758"
       x="-0.18436802"
       y="-0.18436802"
       width="1.368736"
       height="1.368736"><feGaussianBlur
         inkscape:collect="always"
         stdDeviation="0.1435474"
         id="feGaussianBlur8760" /></filter><linearGradient
       inkscape:collect="always"
       xlink:href="#linearGradient6334"
       id="linearGradient8788"
       gradientUnits="userSpaceOnUse"
       gradientTransform="translate(6.2164734,0.68504086)"
       x1="129.09886"
       y1="234.54192"
       x2="126.58391"
       y2="225.39421" /><linearGradient
       inkscape:collect="always"
       xlink:href="#linearGradient3099"
       id="linearGradient8790"
       gradientUnits="userSpaceOnUse"
       gradientTransform="matrix(1.8036086,0,0,1.8036086,-103.84904,-193.77883)"
       x1="123.508"
       y1="234.92897"
       x2="123.508"
       y2="230.29099" /><linearGradient
       inkscape:collect="always"
       xlink:href="#linearGradient3461"
       id="linearGradient8792"
       gradientUnits="userSpaceOnUse"
       gradientTransform="translate(17.465957,-39.301591)"
       x1="117.34316"
       y1="230.29646"
       x2="124.96731"
       y2="241.80374" /><linearGradient
       inkscape:collect="always"
       xlink:href="#linearGradient2351"
       id="linearGradient8794"
       gradientUnits="userSpaceOnUse"
       x1="115.79492"
       y1="241.13281"
       x2="131.2207"
       y2="241.13281" /><linearGradient
       inkscape:collect="always"
       xlink:href="#linearGradient18231"
       id="linearGradient8796"
       gradientUnits="userSpaceOnUse"
       gradientTransform="translate(-22.014255,-25.541337)"
       x1="130.18675"
       y1="268.83871"
       x2="124.32191"
       y2="258.68051" /><linearGradient
       inkscape:collect="always"
       xlink:href="#linearGradient18231"
       id="linearGradient8798"
       gradientUnits="userSpaceOnUse"
       x1="121.95032"
       y1="263.25079"
       x2="124.39153"
       y2="258.66223" /><linearGradient
       inkscape:collect="always"
       xlink:href="#linearGradient4295"
       id="linearGradient8800"
       gradientUnits="userSpaceOnUse"
       gradientTransform="translate(-4.3262448,-11.786868)"
       x1="123.57589"
       y1="258.056"
       x2="130.42947"
       y2="268.93103" /><linearGradient
       inkscape:collect="always"
       xlink:href="#linearGradient1890"
       id="linearGradient8802"
       gradientUnits="userSpaceOnUse"
       x1="123.22861"
       y1="254.62259"
       x2="130.87292"
       y2="268.22931" /><linearGradient
       inkscape:collect="always"
       xlink:href="#linearGradient12520"
       id="linearGradient12522"
       x1="142.36174"
       y1="226.5853"
       x2="143.19682"
       y2="229.29727"
       gradientUnits="userSpaceOnUse"
       gradientTransform="matrix(1.8036086,0,0,1.8036086,-142.37449,-192.81027)" /><linearGradient
       inkscape:collect="always"
       xlink:href="#linearGradient12520"
       id="linearGradient12595"
       gradientUnits="userSpaceOnUse"
       x1="142.36174"
       y1="226.5853"
       x2="143.19682"
       y2="229.29727"
       gradientTransform="matrix(1.8036086,0,0,1.8036086,-134.82436,-192.81027)" /><linearGradient
       inkscape:collect="always"
       xlink:href="#linearGradient6334"
       id="linearGradient16837"
       gradientUnits="userSpaceOnUse"
       gradientTransform="translate(6.2164734,0.68504086)"
       x1="129.09886"
       y1="234.54192"
       x2="126.58391"
       y2="225.39421" /><linearGradient
       inkscape:collect="always"
       xlink:href="#linearGradient3099"
       id="linearGradient16839"
       gradientUnits="userSpaceOnUse"
       gradientTransform="matrix(1.8036086,0,0,1.8036086,-59.716579,-193.77882)"
       x1="123.508"
       y1="234.92897"
       x2="123.508"
       y2="230.29099" /><linearGradient
       inkscape:collect="always"
       xlink:href="#linearGradient17151"
       id="linearGradient16841"
       gradientUnits="userSpaceOnUse"
       gradientTransform="translate(17.465957,-39.301591)"
       x1="117.34316"
       y1="230.29646"
       x2="124.96731"
       y2="241.80374" /><linearGradient
       inkscape:collect="always"
       xlink:href="#linearGradient20483"
       id="linearGradient16843"
       gradientUnits="userSpaceOnUse"
       x1="115.79492"
       y1="241.13281"
       x2="131.2207"
       y2="241.13281" /><linearGradient
       inkscape:collect="always"
       xlink:href="#linearGradient18231"
       id="linearGradient16845"
       gradientUnits="userSpaceOnUse"
       gradientTransform="translate(-22.014255,-25.541337)"
       x1="130.18675"
       y1="268.83871"
       x2="124.32191"
       y2="258.68051" /><linearGradient
       inkscape:collect="always"
       xlink:href="#linearGradient18231"
       id="linearGradient16847"
       gradientUnits="userSpaceOnUse"
       x1="121.95032"
       y1="263.25079"
       x2="124.39153"
       y2="258.66223" /><linearGradient
       inkscape:collect="always"
       xlink:href="#linearGradient21041"
       id="linearGradient16849"
       gradientUnits="userSpaceOnUse"
       gradientTransform="translate(-4.3262448,-11.786868)"
       x1="123.57589"
       y1="258.056"
       x2="130.5108"
       y2="268.14563" /><linearGradient
       inkscape:collect="always"
       xlink:href="#linearGradient18890"
       id="linearGradient16851"
       gradientUnits="userSpaceOnUse"
       x1="123.22861"
       y1="254.62259"
       x2="130.87292"
       y2="268.22931" /><linearGradient
       inkscape:collect="always"
       xlink:href="#linearGradient12520"
       id="linearGradient16853"
       gradientUnits="userSpaceOnUse"
       x1="142.36174"
       y1="226.5853"
       x2="143.19682"
       y2="229.29727"
       gradientTransform="matrix(1.8036086,0,0,1.8036086,-98.242029,-192.81026)" /><linearGradient
       inkscape:collect="always"
       xlink:href="#linearGradient12520"
       id="linearGradient16855"
       gradientUnits="userSpaceOnUse"
       gradientTransform="matrix(1.8036086,0,0,1.8036086,-90.691889,-192.81026)"
       x1="142.36174"
       y1="226.5853"
       x2="143.19682"
       y2="229.29727" /><linearGradient
       inkscape:collect="always"
       xlink:href="#linearGradient12520"
       id="linearGradient22550"
       gradientUnits="userSpaceOnUse"
       gradientTransform="matrix(1.8036086,0,0,1.8036086,-157.20296,-329.33527)"
       x1="142.36174"
       y1="226.5853"
       x2="143.19682"
       y2="229.29727" /><linearGradient
       inkscape:collect="always"
       xlink:href="#linearGradient12520"
       id="linearGradient22552"
       gradientUnits="userSpaceOnUse"
       gradientTransform="matrix(1.8036086,0,0,1.8036086,-164.75309,-329.33527)"
       x1="142.36174"
       y1="226.5853"
       x2="143.19682"
       y2="229.29727" /><linearGradient
       inkscape:collect="always"
       xlink:href="#linearGradient4295"
       id="linearGradient22554"
       gradientUnits="userSpaceOnUse"
       gradientTransform="translate(-4.3262448,-11.786868)"
       x1="123.57589"
       y1="258.056"
       x2="130.42947"
       y2="268.93103" /><linearGradient
       inkscape:collect="always"
       xlink:href="#linearGradient1890"
       id="linearGradient22556"
       gradientUnits="userSpaceOnUse"
       x1="123.22861"
       y1="254.62259"
       x2="130.87292"
       y2="268.22931" /><linearGradient
       inkscape:collect="always"
       xlink:href="#linearGradient18231"
       id="linearGradient22558"
       gradientUnits="userSpaceOnUse"
       gradientTransform="translate(-22.014255,-25.541337)"
       x1="130.18675"
       y1="268.83871"
       x2="124.32191"
       y2="258.68051" /><linearGradient
       inkscape:collect="always"
       xlink:href="#linearGradient18231"
       id="linearGradient22560"
       gradientUnits="userSpaceOnUse"
       x1="121.95032"
       y1="263.25079"
       x2="124.39153"
       y2="258.66223" /><linearGradient
       inkscape:collect="always"
       xlink:href="#linearGradient3461"
       id="linearGradient22562"
       gradientUnits="userSpaceOnUse"
       gradientTransform="translate(17.465957,-39.301591)"
       x1="117.34316"
       y1="230.29646"
       x2="124.96731"
       y2="241.80374" /><linearGradient
       inkscape:collect="always"
       xlink:href="#linearGradient2351"
       id="linearGradient22564"
       gradientUnits="userSpaceOnUse"
       x1="115.79492"
       y1="241.13281"
       x2="131.2207"
       y2="241.13281" /><linearGradient
       inkscape:collect="always"
       xlink:href="#linearGradient3099"
       id="linearGradient22566"
       gradientUnits="userSpaceOnUse"
       gradientTransform="matrix(1.8036086,0,0,1.8036086,-126.22764,-330.30383)"
       x1="123.508"
       y1="234.92897"
       x2="123.508"
       y2="230.29099" /><linearGradient
       inkscape:collect="always"
       xlink:href="#linearGradient6334"
       id="linearGradient22568"
       gradientUnits="userSpaceOnUse"
       gradientTransform="translate(6.2164734,0.68504086)"
       x1="129.09886"
       y1="234.54192"
       x2="126.58391"
       y2="225.39421" /></defs><g
     inkscape:label="Layer 1"
     inkscape:groupmode="layer"
     id="layer1"><g
       id="g22229"
       transform="matrix(1.8036086,0,0,1.8036086,-78.908855,-196.25425)"
       style="fill:#dedede;fill-opacity:1"><path
         style="color:#000000;fill:#dedede;fill-opacity:1;stroke-linecap:square;-inkscape-stroke:none;paint-order:markers stroke fill"
         d="m 130.43863,226.65437 c -0.53357,0 -0.98437,0.4508 -0.98437,0.98438 v 5.84375 c 0,0.53357 0.4508,0.98437 0.98437,0.98437 h 7.41992 c 0.53358,0 0.98438,-0.4508 0.98438,-0.98437 v -5.84375 c 0,-0.53358 -0.4508,-0.98438 -0.98438,-0.98438 z"
         id="path22227"
         sodipodi:nodetypes="sssssssss" /></g><g
       id="g22087"
       transform="matrix(1.8036086,0,0,1.8036086,-123.0405,-196.25425)"
       style="fill:#dedede;fill-opacity:1"><path
         style="color:#000000;fill:#dedede;fill-opacity:1;stroke-linecap:square;-inkscape-stroke:none;paint-order:markers stroke fill"
         d="m 130.43863,226.65437 c -0.53357,0 -0.98437,0.4508 -0.98437,0.98438 v 5.84375 c 0,0.53357 0.4508,0.98437 0.98437,0.98437 h 7.41992 c 0.53358,0 0.98438,-0.4508 0.98438,-0.98437 v -5.84375 c 0,-0.53358 -0.4508,-0.98438 -0.98438,-0.98438 z"
         id="path22085"
         sodipodi:nodetypes="sssssssss" /></g><rect
       style="fill:none;stroke:none;stroke-width:0.392029;stroke-linecap:round;stroke-linejoin:round;stroke-opacity:1"
       id="rect234"
       width="105.6724"
       height="105.6724"
       x="52.385963"
       y="46.676136"
       inkscape:export-filename="rect234.png"
       inkscape:export-xdpi="61.533573"
       inkscape:export-ydpi="61.533573" /><g
       id="rect3891"
       style="fill:url(#radialGradient4631);fill-opacity:1;stroke:none;stroke-opacity:1"
       transform="translate(-0.70700328,1.1988317)" /><g
       id="g15595"
       transform="translate(38.158017,55.266979)"
       style="fill:url(#linearGradient15599);fill-opacity:1;stroke:none" /><g
       id="g2182"
       transform="translate(6.298911,30.796709)"
       style="fill:#dedede;fill-opacity:1" /><g
       id="g8766"
       transform="matrix(1.8036086,0,0,1.8036086,-123.0405,-196.25425)"
       style="fill:#dedede;fill-opacity:1"><path
         style="color:#000000;fill:url(#linearGradient8788);fill-opacity:1;stroke-linecap:square;-inkscape-stroke:none;paint-order:markers stroke fill"
         d="m 130.43863,226.65437 c -0.53357,0 -0.98437,0.4508 -0.98437,0.98438 v 5.84375 c 0,0.53357 0.4508,0.98437 0.98437,0.98437 h 7.41992 c 0.53358,0 0.98438,-0.4508 0.98438,-0.98437 v -5.84375 c 0,-0.53358 -0.4508,-0.98438 -0.98438,-0.98438 z"
         id="path8764"
         sodipodi:nodetypes="sssssssss" /></g><rect
       style="fill:url(#linearGradient8790);fill-opacity:1;stroke:none;stroke-width:2.67156;stroke-linecap:square;stroke-linejoin:miter;stroke-dasharray:none;stroke-opacity:1;paint-order:markers stroke fill"
       id="rect8768"
       width="16.935106"
       height="11.619591"
       x="110.44349"
       y="218.3215"
       rx="0.30000001"
       ry="0.30000001" /><g
       id="g8772"
       transform="matrix(1.8036086,0,0,1.8036086,-135.35044,-122.89355)"
       style="fill:url(#linearGradient8794);fill-opacity:1;stroke:none"><path
         style="color:#000000;fill:url(#linearGradient8792);fill-opacity:1;stroke:none;stroke-linecap:square;-inkscape-stroke:none;paint-order:markers stroke fill"
         d="m 135.56165,192.40544 c -1.26293,0 -2.30078,1.0398 -2.30078,2.30274 v 14.24804 c 0,1.26293 1.03785,2.30078 2.30078,2.30078 h 10.82422 c 1.26293,0 2.30078,-1.03785 2.30078,-2.30078 v -14.24804 c 0,-1.26294 -1.03785,-2.30274 -2.30078,-2.30274 z"
         id="path8770"
         sodipodi:nodetypes="sssssssss" /></g><g
       id="g8776"
       transform="matrix(1.8036086,0,0,1.8036086,-64.143613,-180.85312)"
       style="fill:url(#linearGradient8798);fill-opacity:1"><path
         style="color:#000000;fill:url(#linearGradient8796);fill-opacity:1;stroke-linecap:square;-inkscape-stroke:none;paint-order:markers stroke fill"
         d="m 109.20645,228.10124 c -5.14232,2.96808 -10.283915,5.9374 -15.425785,8.90625 v 1.96875 c 0,1.26288 1.03763,2.30078 2.30078,2.30078 h 10.824225 c 1.26314,0 2.30078,-1.0379 2.30078,-2.30078 z"
         id="path8774"
         sodipodi:nodetypes="ccssssc" /></g><g
       id="g8780"
       style="fill:url(#linearGradient8802);fill-opacity:1"
       transform="matrix(1.8036086,0,0,1.8036086,-96.045869,-201.84523)"><path
         style="color:#000000;fill:url(#linearGradient8800);fill-opacity:1;stroke-linecap:square;-inkscape-stroke:none;paint-order:markers stroke fill"
         d="m 126.89446,241.85571 c -5.14232,2.96808 -10.28391,5.9374 -15.42578,8.90625 v 1.96875 c 0,1.26288 1.03763,2.30078 2.30078,2.30078 h 10.82422 c 1.26315,0 2.30078,-1.0379 2.30078,-2.30078 z"
         id="path8778"
         sodipodi:nodetypes="ccssssc" /></g><circle
       style="fill:#d5ff00;fill-opacity:1;stroke:none;stroke-width:0.424992;stroke-linecap:square;stroke-opacity:1;paint-order:markers stroke fill;filter:url(#filter8758)"
       id="circle8782"
       cx="144.81032"
       cy="245.60669"
       r="0.93430996"
       transform="matrix(1.8036086,0,0,1.8036086,-142.37449,-192.81027)" /><circle
       style="fill:#d5ff00;fill-opacity:1;stroke:none;stroke-width:0.647918;stroke-linecap:square;stroke-opacity:1;paint-order:markers stroke fill"
       id="circle8784"
       cx="118.80665"
       cy="250.16806"
       r="1.4243914" /><rect
       style="fill:url(#linearGradient12522);fill-opacity:1;stroke:none;stroke-width:2.22158;stroke-linecap:square;stroke-opacity:1;paint-order:markers stroke fill"
       id="rect12506"
       width="2.0281203"
       height="4.0537009"
       x="114.12193"
       y="216.29465"
       rx="0.30000001"
       ry="0.30000001" /><rect
       style="fill:url(#linearGradient12595);fill-opacity:1;stroke:none;stroke-width:2.22158;stroke-linecap:square;stroke-opacity:1;paint-order:markers stroke fill"
       id="rect12593"
       width="2.0281203"
       height="4.0537009"
       x="121.67207"
       y="216.29465"
       rx="0.30000001"
       ry="0.30000001" /><path
       id="path12716"
       style="color:#000000;fill:#00a0ff;stroke-width:0.630962;stroke-linecap:round;stroke-linejoin:round;-inkscape-stroke:none"
       d="m 44.747145,230.0684 c -2.422807,0.23264 -5.013808,0.54945 -7.487286,0.98665 -0.0096,0.001 -1.118421,0.17694 -2.271325,0.81841 -1.15792,0.64425 -2.552502,1.99 -2.591515,4.01867 a 1.4292722,1.4292722 0 0 0 -0.0013,0.0284 v 6.63725 a 1.4291293,1.4291293 0 0 0 1.429768,1.42977 1.4291293,1.4291293 0 0 0 1.429441,-1.42977 v -6.61019 c 0.01584,-0.82396 0.457811,-1.20555 1.123924,-1.57617 0.666114,-0.37062 1.356731,-0.49789 1.356731,-0.49789 a 1.4292722,1.4292722 0 0 0 0.01467,-0.003 c 2.818046,-0.49843 5.857554,-0.84324 8.593277,-1.07828 0.356838,-0.0307 0.698658,-0.0564 1.04404,-0.0835 z" /><path
       style="fill:none;fill-opacity:1;stroke:#00a0ff;stroke-width:2.85826;stroke-linecap:round;stroke-linejoin:round;stroke-dasharray:none;stroke-opacity:1"
       d="m 33.82549,242.55791 c 0,0 0.820062,10.80708 11.794522,11.13622 0,0 3.017204,0.43887 4.498376,-0.98744 0,0 2.194327,-2.90749 5.04696,-2.96235"
       id="path12718"
       sodipodi:nodetypes="cccc" /><path
       id="path12720"
       style="color:#000000;fill:#00a0ff;stroke-width:0.630962;stroke-linecap:round;stroke-linejoin:round;-inkscape-stroke:none"
       d="m 56.084205,241.40546 c -12.223731,2.22126 -21.499658,-1.59932 -21.499658,-1.59932 a 1.4291324,1.4291324 0 0 0 -1.863426,0.78255 1.4291324,1.4291324 0 0 0 0.783845,1.86309 c 0,0 10.996311,4.44017 24.961424,1.33619 z" /><path
       id="path12722"
       style="color:#000000;fill:#00a0ff;stroke-width:0.630962;stroke-linecap:round;stroke-linejoin:round;-inkscape-stroke:none"
       d="m 59.33077,230.37946 3.461118,3.46144 c 0.433155,-0.0599 0.87221,-0.0906 1.314666,-0.0893 2.4969,0.007 4.885862,1.00544 6.646057,2.77639 a 2.113723,2.113723 0 0 0 2.989631,0.009 2.113723,2.113723 0 0 0 0.0088,-2.98964 c -2.54968,-2.56526 -6.016584,-4.01248 -9.633404,-4.02258 -1.649606,-0.004 -3.269324,0.291 -4.78687,0.85493 z" /><path
       id="path12724"
       style="color:#000000;fill:#00a0ff;stroke-width:0.630962;stroke-linecap:round;stroke-linejoin:round;-inkscape-stroke:none"
       d="m 53.253038,224.30205 3.123643,3.12364 c 6.62904,-3.20263 14.80518,-2.03261 20.294872,3.49014 a 2.113723,2.113723 0 0 0 2.988653,0.009 2.113723,2.113723 0 0 0 0.0098,-2.98963 c -4.258376,-4.28402 -9.864941,-6.44324 -15.480946,-6.47129 -3.776213,-0.0189 -7.55644,0.92777 -10.936008,2.83834 z" /><path
       id="path12726"
       style="color:#000000;fill:#00a0ff;stroke-width:0.630962;stroke-linecap:round;stroke-linejoin:round;-inkscape-stroke:none"
       d="m 64.051124,213.2268 c -5.984127,0.006 -11.757881,1.90291 -16.536067,5.33726 l 3.036585,3.03659 c 3.951473,-2.67194 8.644065,-4.1406 13.503072,-4.14551 6.845018,-0.007 13.36911,2.88816 17.955399,7.96953 a 2.113723,2.113723 0 0 0 2.986046,0.15259 2.113723,2.113723 0 0 0 0.15292,-2.98474 c -5.387351,-5.96891 -13.057352,-9.37384 -21.097955,-9.36572 z" /><path
       style="fill:none;fill-opacity:1;stroke:#00a0ff;stroke-width:5.00353;stroke-linecap:round;stroke-linejoin:round;stroke-dasharray:none;stroke-opacity:1"
       d="m 38.698181,216.90006 38.729921,38.72992"
       id="path12728" /><path
       id="path12730"
       style="color:#000000;fill:#00a0ff;stroke-width:0.630962;stroke-linecap:round;stroke-linejoin:round;-inkscape-stroke:none"
       d="m 66.734915,252.05617 c -0.63529,0.11391 -1.321783,0.18664 -2.067536,0.209 a 1.4292753,1.4292753 0 0 0 -0.162707,0.0147 c 0,0 -0.610134,0.0861 -1.383794,0.0297 -0.722319,-0.0528 -1.471965,-0.27386 -1.843861,-0.56832 -0.372047,-0.5078 -2.611003,-3.35911 -6.083926,-3.4259 a 1.4291324,1.4291324 0 0 0 -1.456833,1.4014 1.4291324,1.4291324 0 0 0 1.401403,1.4565 c 1.896167,0.0365 3.933569,2.39458 3.933569,2.39458 a 1.4292753,1.4292753 0 0 0 0.150315,0.1689 c 1.14259,1.10027 2.585752,1.34388 3.690983,1.42455 1.058325,0.0772 1.84704,-0.0403 1.918857,-0.0505 1.574881,-0.0551 2.977358,-0.3205 4.220827,-0.73723 z" /><g
       id="g16811"
       transform="matrix(1.8036086,0,0,1.8036086,-78.908855,-196.25327)"
       style="fill:#dedede;fill-opacity:1"><path
         style="color:#000000;fill:url(#linearGradient16837);fill-opacity:1;stroke-linecap:square;-inkscape-stroke:none;paint-order:markers stroke fill"
         d="m 130.43863,226.65437 c -0.53357,0 -0.98437,0.4508 -0.98437,0.98438 v 5.84375 c 0,0.53357 0.4508,0.98437 0.98437,0.98437 h 7.41992 c 0.53358,0 0.98438,-0.4508 0.98438,-0.98437 v -5.84375 c 0,-0.53358 -0.4508,-0.98438 -0.98438,-0.98438 z"
         id="path16809"
         sodipodi:nodetypes="sssssssss" /></g><rect
       style="fill:url(#linearGradient16839);fill-opacity:1;stroke:none;stroke-width:2.67156;stroke-linecap:square;stroke-linejoin:miter;stroke-dasharray:none;stroke-opacity:1;paint-order:markers stroke fill"
       id="rect16813"
       width="16.935106"
       height="11.619591"
       x="154.57594"
       y="218.3215"
       rx="0.30000001"
       ry="0.30000001" /><g
       id="g16817"
       transform="matrix(1.8036086,0,0,1.8036086,-91.217989,-122.89355)"
       style="fill:url(#linearGradient16843);fill-opacity:1;stroke:none"><path
         style="color:#000000;fill:url(#linearGradient16841);fill-opacity:1;stroke:none;stroke-linecap:square;-inkscape-stroke:none;paint-order:markers stroke fill"
         d="m 135.56165,192.40544 c -1.26293,0 -2.30078,1.0398 -2.30078,2.30274 v 14.24804 c 0,1.26293 1.03785,2.30078 2.30078,2.30078 h 10.82422 c 1.26293,0 2.30078,-1.03785 2.30078,-2.30078 v -14.24804 c 0,-1.26294 -1.03785,-2.30274 -2.30078,-2.30274 z"
         id="path16815"
         sodipodi:nodetypes="sssssssss" /></g><g
       id="g16821"
       transform="matrix(1.8036086,0,0,1.8036086,-20.011149,-180.85312)"
       style="fill:url(#linearGradient16847);fill-opacity:1"><path
         style="color:#000000;fill:url(#linearGradient16845);fill-opacity:1;stroke-linecap:square;-inkscape-stroke:none;paint-order:markers stroke fill"
         d="m 109.20645,228.10124 c -5.14232,2.96808 -10.283915,5.9374 -15.425785,8.90625 v 1.96875 c 0,1.26288 1.03763,2.30078 2.30078,2.30078 h 10.824225 c 1.26314,0 2.30078,-1.0379 2.30078,-2.30078 z"
         id="path16819"
         sodipodi:nodetypes="ccssssc" /></g><g
       id="g16825"
       style="fill:url(#linearGradient16851);fill-opacity:1"
       transform="matrix(1.8036086,0,0,1.8036086,-51.913409,-201.84523)"><path
         style="color:#000000;fill:url(#linearGradient16849);fill-opacity:1;stroke-linecap:square;-inkscape-stroke:none;paint-order:markers stroke fill"
         d="m 126.89446,241.85571 c -5.14232,2.96808 -10.28391,5.9374 -15.42578,8.90625 v 1.96875 c 0,1.26288 1.03763,2.30078 2.30078,2.30078 h 10.82422 c 1.26315,0 2.30078,-1.0379 2.30078,-2.30078 z"
         id="path16823"
         sodipodi:nodetypes="ccssssc" /></g><circle
       style="fill:#d5ff00;fill-opacity:1;stroke:none;stroke-width:0.424992;stroke-linecap:square;stroke-opacity:1;paint-order:markers stroke fill;filter:url(#filter8758)"
       id="circle16827"
       cx="144.81032"
       cy="245.60669"
       r="0.93430996"
       transform="matrix(1.8036086,0,0,1.8036086,-98.242029,-192.81027)" /><circle
       style="fill:#d5ff00;fill-opacity:1;stroke:none;stroke-width:0.647916;stroke-linecap:square;stroke-opacity:1;paint-order:markers stroke fill"
       id="circle16829"
       cx="162.9391"
       cy="250.16805"
       r="1.4243914" /><rect
       style="fill:url(#linearGradient16853);fill-opacity:1;stroke:none;stroke-width:2.22158;stroke-linecap:square;stroke-opacity:1;paint-order:markers stroke fill"
       id="rect16831"
       width="2.0281203"
       height="4.0537009"
       x="158.25438"
       y="216.29465"
       rx="0.30000001"
       ry="0.30000001" /><rect
       style="fill:url(#linearGradient16855);fill-opacity:1;stroke:none;stroke-width:2.22158;stroke-linecap:square;stroke-opacity:1;paint-order:markers stroke fill"
       id="rect16833"
       width="2.0281203"
       height="4.0537009"
       x="165.80452"
       y="216.29465"
       rx="0.30000001"
       ry="0.30000001" /><g
       id="g22585"
       transform="matrix(2.2717793,0,0,2.2717793,-114.07825,-125.23042)"><g
         id="g22522"
         transform="matrix(1.8036086,0,0,1.8036086,-145.4191,-332.77925)"
         style="fill:#dedede;fill-opacity:1"><path
           style="color:#000000;fill:#dedede;fill-opacity:1;stroke-linecap:square;-inkscape-stroke:none;paint-order:markers stroke fill"
           d="m 130.43863,226.65437 c -0.53357,0 -0.98437,0.4508 -0.98437,0.98438 v 5.84375 c 0,0.53357 0.4508,0.98437 0.98437,0.98437 h 7.41992 c 0.53358,0 0.98438,-0.4508 0.98438,-0.98437 v -5.84375 c 0,-0.53358 -0.4508,-0.98438 -0.98438,-0.98438 z"
           id="path22520"
           sodipodi:nodetypes="sssssssss" /></g><g
         id="g22526"
         transform="matrix(1.8036086,0,0,1.8036086,-145.4191,-332.77925)"
         style="fill:#dedede;fill-opacity:1"><path
           style="color:#000000;fill:url(#linearGradient22568);fill-opacity:1;stroke-linecap:square;-inkscape-stroke:none;paint-order:markers stroke fill"
           d="m 130.43863,226.65437 c -0.53357,0 -0.98437,0.4508 -0.98437,0.98438 v 5.84375 c 0,0.53357 0.4508,0.98437 0.98437,0.98437 h 7.41992 c 0.53358,0 0.98438,-0.4508 0.98438,-0.98437 v -5.84375 c 0,-0.53358 -0.4508,-0.98438 -0.98438,-0.98438 z"
           id="path22524"
           sodipodi:nodetypes="sssssssss" /></g><rect
         style="fill:url(#linearGradient22566);fill-opacity:1;stroke:none;stroke-width:2.67156;stroke-linecap:square;stroke-linejoin:miter;stroke-dasharray:none;stroke-opacity:1;paint-order:markers stroke fill"
         id="rect22528"
         width="16.935106"
         height="11.619591"
         x="88.064896"
         y="81.796501"
         rx="0.13205509"
         ry="0.13205509" /><g
         id="g22532"
         transform="matrix(1.8036086,0,0,1.8036086,-157.72904,-259.41855)"
         style="fill:url(#linearGradient22564);fill-opacity:1;stroke:none"><path
           style="color:#000000;fill:url(#linearGradient22562);fill-opacity:1;stroke:none;stroke-linecap:square;-inkscape-stroke:none;paint-order:markers stroke fill"
           d="m 135.56165,192.40544 c -1.26293,0 -2.30078,1.0398 -2.30078,2.30274 v 14.24804 c 0,1.26293 1.03785,2.30078 2.30078,2.30078 h 10.82422 c 1.26293,0 2.30078,-1.03785 2.30078,-2.30078 v -14.24804 c 0,-1.26294 -1.03785,-2.30274 -2.30078,-2.30274 z"
           id="path22530"
           sodipodi:nodetypes="sssssssss" /></g><g
         id="g22536"
         transform="matrix(1.8036086,0,0,1.8036086,-86.522208,-317.37812)"
         style="fill:url(#linearGradient22560);fill-opacity:1"><path
           style="color:#000000;fill:url(#linearGradient22558);fill-opacity:1;stroke-linecap:square;-inkscape-stroke:none;paint-order:markers stroke fill"
           d="m 109.20645,228.10124 c -5.14232,2.96808 -10.283915,5.9374 -15.425785,8.90625 v 1.96875 c 0,1.26288 1.03763,2.30078 2.30078,2.30078 h 10.824225 c 1.26314,0 2.30078,-1.0379 2.30078,-2.30078 z"
           id="path22534"
           sodipodi:nodetypes="ccssssc" /></g><g
         id="g22540"
         style="fill:url(#linearGradient22556);fill-opacity:1"
         transform="matrix(1.8036086,0,0,1.8036086,-118.42446,-338.37023)"><path
           style="color:#000000;fill:url(#linearGradient22554);fill-opacity:1;stroke-linecap:square;-inkscape-stroke:none;paint-order:markers stroke fill"
           d="m 126.89446,241.85571 c -5.14232,2.96808 -10.28391,5.9374 -15.42578,8.90625 v 1.96875 c 0,1.26288 1.03763,2.30078 2.30078,2.30078 h 10.82422 c 1.26315,0 2.30078,-1.0379 2.30078,-2.30078 z"
           id="path22538"
           sodipodi:nodetypes="ccssssc" /></g><circle
         style="fill:#d5ff00;fill-opacity:1;stroke:none;stroke-width:0.424992;stroke-linecap:square;stroke-opacity:1;paint-order:markers stroke fill;filter:url(#filter8758)"
         id="circle22542"
         cx="144.81032"
         cy="245.60669"
         r="0.93430996"
         transform="matrix(1.8036086,0,0,1.8036086,-164.75309,-329.33527)" /><circle
         style="fill:#d5ff00;fill-opacity:1;stroke:none;stroke-width:0.647918;stroke-linecap:square;stroke-opacity:1;paint-order:markers stroke fill"
         id="circle22544"
         cx="96.428055"
         cy="113.64306"
         r="1.4243914" /><rect
         style="fill:url(#linearGradient22552);fill-opacity:1;stroke:none;stroke-width:2.22158;stroke-linecap:square;stroke-opacity:1;paint-order:markers stroke fill"
         id="rect22546"
         width="2.0281203"
         height="4.0537009"
         x="91.74334"
         y="79.769646"
         rx="0.13205509"
         ry="0.13205509" /><rect
         style="fill:url(#linearGradient22550);fill-opacity:1;stroke:none;stroke-width:2.22158;stroke-linecap:square;stroke-opacity:1;paint-order:markers stroke fill"
         id="rect22548"
         width="2.0281203"
         height="4.0537009"
         x="99.29348"
         y="79.769646"
         rx="0.13205509"
         ry="0.13205509" /></g></g></svg>
